<?xml version="1.0" encoding="utf-8"?>
<!-- Generator: Adobe Illustrator 13.0.0, SVG Export Plug-In . SVG Version: 6.00 Build 14948)  -->
<!DOCTYPE svg PUBLIC "-//W3C//DTD SVG 1.1//EN" "http://www.w3.org/Graphics/SVG/1.1/DTD/svg11.dtd">
<svg version="1.1" id="Layer_1" xmlns="http://www.w3.org/2000/svg" xmlns:xlink="http://www.w3.org/1999/xlink" x="0px" y="0px"
	 width="670px" height="230px" viewBox="0 0 670 230" enable-background="new 0 0 670 230" xml:space="preserve">
<g>
	<g>
		<path fill="#CCCCCC" d="M129.38,4.892c3.268,0,13.888,0.49,22.548,0.49c8.823,0,18.953-0.49,23.365-0.49
			c0.653,0.98,0.817,5.229,0,6.373c-4.412,0.49-7.353,0.817-9.64,1.47c-3.921,0.98-4.575,2.941-4.902,7.843
			c-0.49,7.026-0.327,18.79-0.327,33.168c0,15.195,0.164,30.554,0.49,36.273c0.163,5.065,0.98,7.353,6.209,8.66
			c2.451,0.49,6.208,1.144,10.947,1.797c0.817,0.653,0.327,5.882-0.49,6.536c-3.595,0-15.359-0.49-24.019-0.49
			c-9.64,0-21.731,0.49-24.672,0.49c-0.98-0.49-0.98-5.882-0.163-6.536c4.412-0.49,6.699-0.817,9.15-1.307
			c5.229-1.307,5.882-3.595,6.372-6.862c0.654-4.738,0.49-14.378,0.49-41.175c0-13.725,0.164-23.038-0.327-30.717
			c-0.327-4.412-0.817-6.209-4.249-7.189c-2.941-0.817-6.045-1.307-10.947-1.96C128.4,10.447,128.727,5.709,129.38,4.892z"/>
		<path fill="#CCCCCC" d="M265.481,13.389c-5.065-2.288-12.417-3.268-19.934-3.268c-23.202,0-35.456,17.32-35.456,43.952
			c0,22.221,12.582,46.403,42.482,46.403c8.986,0,14.542-2.941,16.993-4.575c3.758-2.777,8.496-9.313,13.235-16.993
			c1.307-0.163,4.901,1.961,5.392,3.432c-1.307,6.208-8.823,19.77-12.745,22.548c-4.575,1.797-16.175,4.575-26.143,4.575
			c-37.417,0-57.677-20.424-57.677-53.919c0-17.81,8.333-35.783,26.306-45.586c8.823-4.739,19.444-7.516,33.005-7.516
			c15.522,0,26.633,2.941,34.148,3.431c-0.98,6.536-2.287,18.79-2.451,26.469c-0.817,0.98-6.536,1.634-6.699,0.49
			C274.141,19.598,272.18,16.656,265.481,13.389z"/>
		<path fill="#CCCCCC" d="M300.933,4.892c3.758,0,13.398,0.49,21.895,0.49h40.684c5.557,0,13.398,0,16.992-0.49
			c0.49,0,0.98,0.98,0.98,1.307c-0.98,3.921-2.123,14.705-2.287,23.855c-0.816,1.144-6.371,1.634-7.352,0.653
			c-0.98-4.902-1.309-7.026-2.289-10.621c-1.633-4.084-2.939-5.718-7.678-5.882c-6.373-0.327-23.203-0.654-28.431-0.164
			c-0.98,0.164-1.961,2.124-1.961,2.941c0,11.764-0.327,23.038-0.163,34.802c0,0.49,0.49,0.98,0.653,0.98
			c10.458,0,21.731,0,27.45-0.49c2.941-0.163,3.922-2.287,5.064-5.718c0.654-1.797,1.307-3.921,1.797-7.026
			c1.635-0.49,6.373-0.327,8.008,0.653c-0.49,4.248-1.145,11.764-1.145,17.156c0,6.209,0.164,11.928,0.49,17.81
			c-1.307,0.817-5.555,0.98-7.516,0.164c-0.818-3.595-1.309-5.229-1.961-7.353c-1.145-3.921-2.615-5.555-6.045-5.718
			c-5.883-0.327-21.568-0.327-26.144-0.327c-0.49,0-0.653,0.49-0.653,0.817c0,10.13-0.164,21.568,0.163,28.267
			c0.164,4.901,1.144,6.699,6.046,7.679c4.248,0.817,8.006,1.307,12.744,1.797c0.816,0.817,0.654,5.719-0.49,6.536
			c-5.393,0-12.744-0.49-27.45-0.49c-11.764,0-16.666,0.49-22.548,0.49c-0.98-0.654-1.144-5.555-0.164-6.372
			c4.085-0.49,7.516-1.144,9.64-1.634c4.902-1.307,5.719-2.451,6.045-8.169c0.327-6.045,0.164-16.176,0.164-36.109
			c0-18.626,0-29.083-0.327-34.149c-0.164-5.392-1.144-6.699-4.738-7.679c-2.451-0.49-5.719-1.144-9.64-1.634
			C299.626,10.447,300.28,5.709,300.933,4.892z"/>
		<path fill="#CCCCCC" d="M397.496,84.627c7.189-17.156,23.037-58.167,26.633-68.788c1.307-3.758,2.777-8.006,3.268-10.621
			c0.816,0.164,2.941,0.164,6.045,0.164c3.922,0,5.719,0,6.537-0.164c0.816,3.268,1.797,6.373,2.939,9.64
			c3.27,9.15,21.404,56.86,27.777,71.402c5.229,11.601,6.535,12.582,18.953,14.215c0.98,0.653,0.326,5.719-0.326,6.536
			c-4.248-0.164-12.092-0.49-21.404-0.49c-9.805,0-20.424,0.49-23.691,0.49c-0.654-0.817-0.818-5.719,0-6.536
			c3.594-0.49,7.025-0.98,9.477-1.797c1.961-0.817,2.287-2.941,1.961-4.085c-2.125-6.862-6.373-17.973-8.988-24.345
			c-0.326-0.817-1.307-1.144-1.633-1.144c-2.941-0.164-10.457-0.164-16.502-0.164c-10.457,0-11.438,0-13.236,0.164
			c-0.816,0-1.959,1.144-1.959,1.47c-3.432,9.313-7.68,19.934-7.68,23.202c0,3.104,0.652,4.249,5.391,5.392
			c2.125,0.49,5.719,0.98,8.66,1.307c0.654,0.817,0.328,5.719-0.49,6.536c-3.268,0-11.764-0.49-22.711-0.49
			c-10.621,0-16.012,0.49-19.117,0.49c-0.652-0.817-0.652-5.719,0-6.536C389.49,98.842,391.777,97.862,397.496,84.627z
			 M429.193,24.826c-2.777,8.66-8.66,23.691-11.764,33.495c0,0.49,0.164,0.98,0.654,1.144c1.797,0.164,8.168,0.164,12.906,0.164
			c4.086,0,8.66,0,10.785-0.164c0.49,0,0.98-0.817,0.816-1.634c-3.104-8.497-9.641-26.633-12.418-33.168
			C430.012,24.663,429.521,24.499,429.193,24.826z"/>
		<path fill="#CCCCCC" d="M494.057,4.892c3.268,0,13.887,0.49,22.547,0.49c8.824,0,18.953-0.49,23.365-0.49
			c0.654,0.98,0.816,5.229,0,6.373c-4.412,0.49-7.354,0.817-9.641,1.47c-3.92,0.98-4.574,2.941-4.9,7.843
			c-0.49,7.026-0.328,18.79-0.328,33.168c0,15.195,0.164,30.554,0.49,36.273c0.164,5.065,0.98,7.353,6.209,8.66
			c2.451,0.49,6.209,1.144,10.947,1.797c0.816,0.653,0.326,5.882-0.49,6.536c-3.594,0-15.359-0.49-24.018-0.49
			c-9.641,0-21.732,0.49-24.672,0.49c-0.98-0.49-0.98-5.882-0.164-6.536c4.412-0.49,6.699-0.817,9.15-1.307
			c5.229-1.307,5.881-3.595,6.371-6.862c0.654-4.738,0.49-14.378,0.49-41.175c0-13.725,0.164-23.038-0.326-30.717
			c-0.326-4.412-0.816-6.209-4.248-7.189c-2.941-0.817-6.045-1.307-10.947-1.96C493.076,10.447,493.402,5.709,494.057,4.892z"/>
	</g>
	<g>
		<path fill="#24116C" d="M129.38,4.892c3.268,0,13.888,0.49,22.548,0.49c8.823,0,18.953-0.49,23.365-0.49
			c0.653,0.98,0.817,5.229,0,6.373c-4.412,0.49-7.353,0.817-9.64,1.47c-3.921,0.98-4.575,2.941-4.902,7.843
			c-0.49,7.026-0.327,18.79-0.327,33.168c0,15.195,0.164,30.554,0.49,36.273c0.163,5.065,0.98,7.353,6.209,8.66
			c2.451,0.49,6.208,1.144,10.947,1.797c0.817,0.653,0.327,5.882-0.49,6.536c-3.595,0-15.359-0.49-24.019-0.49
			c-9.64,0-21.731,0.49-24.672,0.49c-0.98-0.49-0.98-5.882-0.163-6.536c4.412-0.49,6.699-0.817,9.15-1.307
			c5.229-1.307,5.882-3.595,6.372-6.862c0.654-4.738,0.49-14.378,0.49-41.175c0-13.725,0.164-23.038-0.327-30.717
			c-0.327-4.412-0.817-6.209-4.249-7.189c-2.941-0.817-6.045-1.307-10.947-1.96C128.4,10.447,128.727,5.709,129.38,4.892z"/>
		<path fill="#24116C" d="M265.481,13.389c-5.065-2.288-12.417-3.268-19.934-3.268c-23.202,0-35.456,17.32-35.456,43.952
			c0,22.221,12.582,46.403,42.482,46.403c8.986,0,14.542-2.941,16.993-4.575c3.758-2.777,8.496-9.313,13.235-16.993
			c1.307-0.163,4.901,1.961,5.392,3.432c-1.307,6.208-8.823,19.77-12.745,22.548c-4.575,1.797-16.175,4.575-26.143,4.575
			c-37.417,0-57.677-20.424-57.677-53.919c0-17.81,8.333-35.783,26.306-45.586c8.823-4.739,19.444-7.516,33.005-7.516
			c15.522,0,26.633,2.941,34.148,3.431c-0.98,6.536-2.287,18.79-2.451,26.469c-0.817,0.98-6.536,1.634-6.699,0.49
			C274.141,19.598,272.18,16.656,265.481,13.389z"/>
		<path fill="#24116C" d="M300.933,4.892c3.758,0,13.398,0.49,21.895,0.49h40.684c5.557,0,13.398,0,16.992-0.49
			c0.49,0,0.98,0.98,0.98,1.307c-0.98,3.921-2.123,14.705-2.287,23.855c-0.816,1.144-6.371,1.634-7.352,0.653
			c-0.98-4.902-1.309-7.026-2.289-10.621c-1.633-4.084-2.939-5.718-7.678-5.882c-6.373-0.327-23.203-0.654-28.431-0.164
			c-0.98,0.164-1.961,2.124-1.961,2.941c0,11.764-0.327,23.038-0.163,34.802c0,0.49,0.49,0.98,0.653,0.98
			c10.458,0,21.731,0,27.45-0.49c2.941-0.163,3.922-2.287,5.064-5.718c0.654-1.797,1.307-3.921,1.797-7.026
			c1.635-0.49,6.373-0.327,8.008,0.653c-0.49,4.248-1.145,11.764-1.145,17.156c0,6.209,0.164,11.928,0.49,17.81
			c-1.307,0.817-5.555,0.98-7.516,0.164c-0.818-3.595-1.309-5.229-1.961-7.353c-1.145-3.921-2.615-5.555-6.045-5.718
			c-5.883-0.327-21.568-0.327-26.144-0.327c-0.49,0-0.653,0.49-0.653,0.817c0,10.13-0.164,21.568,0.163,28.267
			c0.164,4.901,1.144,6.699,6.046,7.679c4.248,0.817,8.006,1.307,12.744,1.797c0.816,0.817,0.654,5.719-0.49,6.536
			c-5.393,0-12.744-0.49-27.45-0.49c-11.764,0-16.666,0.49-22.548,0.49c-0.98-0.654-1.144-5.555-0.164-6.372
			c4.085-0.49,7.516-1.144,9.64-1.634c4.902-1.307,5.719-2.451,6.045-8.169c0.327-6.045,0.164-16.176,0.164-36.109
			c0-18.626,0-29.083-0.327-34.149c-0.164-5.392-1.144-6.699-4.738-7.679c-2.451-0.49-5.719-1.144-9.64-1.634
			C299.626,10.447,300.28,5.709,300.933,4.892z"/>
		<path fill="#24116C" d="M397.496,84.627c7.189-17.156,23.037-58.167,26.633-68.788c1.307-3.758,2.777-8.006,3.268-10.621
			c0.816,0.164,2.941,0.164,6.045,0.164c3.922,0,5.719,0,6.537-0.164c0.816,3.268,1.797,6.373,2.939,9.64
			c3.27,9.15,21.404,56.86,27.777,71.402c5.229,11.601,6.535,12.582,18.953,14.215c0.98,0.653,0.326,5.719-0.326,6.536
			c-4.248-0.164-12.092-0.49-21.404-0.49c-9.805,0-20.424,0.49-23.691,0.49c-0.654-0.817-0.818-5.719,0-6.536
			c3.594-0.49,7.025-0.98,9.477-1.797c1.961-0.817,2.287-2.941,1.961-4.085c-2.125-6.862-6.373-17.973-8.988-24.345
			c-0.326-0.817-1.307-1.144-1.633-1.144c-2.941-0.164-10.457-0.164-16.502-0.164c-10.457,0-11.438,0-13.236,0.164
			c-0.816,0-1.959,1.144-1.959,1.47c-3.432,9.313-7.68,19.934-7.68,23.202c0,3.104,0.652,4.249,5.391,5.392
			c2.125,0.49,5.719,0.98,8.66,1.307c0.654,0.817,0.328,5.719-0.49,6.536c-3.268,0-11.764-0.49-22.711-0.49
			c-10.621,0-16.012,0.49-19.117,0.49c-0.652-0.817-0.652-5.719,0-6.536C389.49,98.842,391.777,97.862,397.496,84.627z
			 M429.193,24.826c-2.777,8.66-8.66,23.691-11.764,33.495c0,0.49,0.164,0.98,0.654,1.144c1.797,0.164,8.168,0.164,12.906,0.164
			c4.086,0,8.66,0,10.785-0.164c0.49,0,0.98-0.817,0.816-1.634c-3.104-8.497-9.641-26.633-12.418-33.168
			C430.012,24.663,429.521,24.499,429.193,24.826z"/>
		<path fill="#24116C" d="M494.057,4.892c3.268,0,13.887,0.49,22.547,0.49c8.824,0,18.953-0.49,23.365-0.49
			c0.654,0.98,0.816,5.229,0,6.373c-4.412,0.49-7.354,0.817-9.641,1.47c-3.92,0.98-4.574,2.941-4.9,7.843
			c-0.49,7.026-0.328,18.79-0.328,33.168c0,15.195,0.164,30.554,0.49,36.273c0.164,5.065,0.98,7.353,6.209,8.66
			c2.451,0.49,6.209,1.144,10.947,1.797c0.816,0.653,0.326,5.882-0.49,6.536c-3.594,0-15.359-0.49-24.018-0.49
			c-9.641,0-21.732,0.49-24.672,0.49c-0.98-0.49-0.98-5.882-0.164-6.536c4.412-0.49,6.699-0.817,9.15-1.307
			c5.229-1.307,5.881-3.595,6.371-6.862c0.654-4.738,0.49-14.378,0.49-41.175c0-13.725,0.164-23.038-0.326-30.717
			c-0.326-4.412-0.816-6.209-4.248-7.189c-2.941-0.817-6.045-1.307-10.947-1.96C493.076,10.447,493.402,5.709,494.057,4.892z"/>
	</g>
</g>
<rect x="126.939" y="112.867" fill="#DA251C" width="416.121" height="45.383"/>
<g>
	<path fill="#FFFFFF" d="M223.68,121.745h5.492v14.732c0,2.338,0.068,3.854,0.204,4.546c0.235,1.113,0.794,2.007,1.679,2.681
		c0.884,0.675,2.093,1.012,3.627,1.012c1.559,0,2.733-0.318,3.525-0.955c0.792-0.638,1.268-1.42,1.429-2.348
		c0.161-0.928,0.241-2.468,0.241-4.62v-15.048h5.492v14.287c0,3.266-0.148,5.573-0.445,6.921c-0.297,1.349-0.844,2.486-1.642,3.414
		s-1.865,1.667-3.201,2.218c-1.336,0.55-3.08,0.825-5.232,0.825c-2.598,0-4.568-0.3-5.91-0.899c-1.342-0.601-2.403-1.38-3.182-2.338
		c-0.779-0.959-1.293-1.964-1.54-3.016c-0.359-1.559-0.538-3.859-0.538-6.902V121.745z"/>
	<path fill="#FFFFFF" d="M251.215,148.946v-27.201h5.344l11.133,18.165v-18.165h5.103v27.201h-5.511l-10.966-17.738v17.738H251.215z
		"/>
	<path fill="#FFFFFF" d="M278.435,148.946v-27.201h5.492v27.201H278.435z"/>
	<path fill="#FFFFFF" d="M296.099,148.946l-9.723-27.201h5.956l6.884,20.132l6.661-20.132h5.826l-9.741,27.201H296.099z"/>
	<path fill="#FFFFFF" d="M314.505,148.946v-27.201h20.169v4.602h-14.677v6.03h13.656v4.583h-13.656v7.403h15.196v4.583H314.505z"/>
	<path fill="#FFFFFF" d="M339.869,148.946v-27.201h11.561c2.906,0,5.019,0.244,6.336,0.732c1.317,0.489,2.371,1.358,3.164,2.607
		c0.791,1.25,1.188,2.679,1.188,4.286c0,2.041-0.601,3.727-1.801,5.056c-1.199,1.33-2.993,2.169-5.381,2.515
		c1.188,0.693,2.168,1.454,2.941,2.282c0.773,0.829,1.814,2.301,3.127,4.416l3.32,5.307h-6.568l-3.971-5.919
		c-1.41-2.115-2.375-3.448-2.895-3.999c-0.52-0.55-1.07-0.928-1.65-1.131c-0.582-0.205-1.504-0.307-2.766-0.307h-1.113v11.355
		H339.869z M345.361,133.249h4.064c2.635,0,4.279-0.111,4.936-0.334c0.654-0.223,1.168-0.605,1.539-1.15
		c0.371-0.544,0.557-1.225,0.557-2.041c0-0.915-0.244-1.654-0.732-2.217c-0.488-0.563-1.178-0.919-2.068-1.067
		c-0.445-0.062-1.781-0.093-4.008-0.093h-4.287V133.249z"/>
	<path fill="#FFFFFF" d="M365.902,140.096l5.344-0.52c0.32,1.794,0.974,3.111,1.957,3.952c0.983,0.842,2.311,1.262,3.98,1.262
		c1.768,0,3.102-0.374,3.998-1.123c0.896-0.748,1.346-1.623,1.346-2.625c0-0.643-0.189-1.19-0.566-1.643
		c-0.377-0.451-1.036-0.844-1.977-1.178c-0.643-0.223-2.109-0.618-4.396-1.188c-2.945-0.729-5.01-1.626-6.197-2.69
		c-1.67-1.496-2.506-3.321-2.506-5.474c0-1.385,0.393-2.682,1.179-3.887c0.785-1.207,1.917-2.125,3.396-2.756
		s3.262-0.946,5.354-0.946c3.414,0,5.983,0.749,7.709,2.245c1.726,1.497,2.631,3.495,2.719,5.993l-5.492,0.241
		c-0.236-1.397-0.74-2.402-1.513-3.016c-0.773-0.611-1.933-0.918-3.479-0.918c-1.596,0-2.845,0.328-3.748,0.983
		c-0.581,0.421-0.871,0.983-0.871,1.688c0,0.644,0.271,1.194,0.816,1.651c0.691,0.582,2.375,1.188,5.047,1.818
		s4.647,1.283,5.928,1.958c1.28,0.674,2.282,1.596,3.006,2.764c0.724,1.17,1.086,2.614,1.086,4.333c0,1.559-0.434,3.019-1.299,4.379
		c-0.867,1.361-2.092,2.372-3.674,3.034c-1.584,0.661-3.557,0.992-5.92,0.992c-3.438,0-6.08-0.795-7.922-2.385
		C367.361,145.455,366.26,143.139,365.902,140.096z"/>
	<path fill="#FFFFFF" d="M392.473,148.946v-27.201h5.492v27.201H392.473z"/>
	<path fill="#FFFFFF" d="M409.32,148.946v-22.6h-8.072v-4.602h21.617v4.602h-8.053v22.6H409.32z"/>
	<path fill="#FFFFFF" d="M433.553,148.946v-11.448l-9.965-15.753h6.439l6.4,10.762l6.272-10.762h6.326l-10,15.79v11.411H433.553z"/>
</g>
<g>
	<g>
		<path fill="#231376" d="M221.644,175.564c0,2.167-0.474,4.107-1.422,5.82c-0.948,1.714-2.146,3.029-3.594,3.945
			c-1.208,0.781-2.523,1.284-3.945,1.508c-1.422,0.225-2.935,0.336-4.539,0.336h-7.281v-23.266h7.219
			c1.635,0,3.167,0.104,4.594,0.313c1.427,0.209,2.766,0.714,4.016,1.516c1.531,0.979,2.74,2.3,3.625,3.961
			C221.201,171.359,221.644,173.314,221.644,175.564z M215.644,175.518c0-1.531-0.263-2.841-0.789-3.93
			c-0.526-1.088-1.336-1.939-2.43-2.555c-0.792-0.438-1.623-0.677-2.492-0.719c-0.87-0.041-1.909-0.063-3.117-0.063h-0.109v14.563
			h0.109c1.313,0,2.419-0.023,3.32-0.07s1.758-0.325,2.57-0.836c0.958-0.604,1.688-1.438,2.188-2.5S215.644,177.049,215.644,175.518
			z"/>
		<path fill="#231376" d="M235.977,187.174v-23.266h15.734v4.438h-9.922v4.078h9.141v4.438h-9.141v5.875h9.922v4.438H235.977z"/>
		<path fill="#231376" d="M286.185,187.174h-5.844v-10.313h-7.953v10.313h-5.844v-23.266h5.844v8.516h7.953v-8.516h5.844V187.174z"
			/>
		<path fill="#231376" d="M323.394,187.174h-7.125l-6.484-8.531h-2.094v8.531h-5.813v-23.266h9.359c1.292,0,2.417,0.081,3.375,0.242
			c0.958,0.162,1.844,0.498,2.656,1.008c0.833,0.531,1.495,1.206,1.984,2.023c0.489,0.818,0.734,1.857,0.734,3.117
			c0,1.781-0.401,3.227-1.203,4.336c-0.802,1.109-1.875,1.992-3.219,2.648L323.394,187.174z M313.987,171.033
			c0-0.583-0.112-1.086-0.336-1.508c-0.224-0.422-0.597-0.747-1.117-0.977c-0.365-0.156-0.771-0.255-1.219-0.297
			c-0.448-0.041-1.005-0.063-1.672-0.063h-1.953v6.266h1.672c0.813,0,1.502-0.049,2.07-0.148c0.567-0.099,1.049-0.31,1.445-0.633
			c0.375-0.291,0.653-0.641,0.836-1.047C313.896,172.221,313.987,171.689,313.987,171.033z"/>
		<path fill="#231376" d="M333.492,187.174l7.859-23.266h6.375l7.859,23.266h-6.016l-1.453-4.75h-7.313l-1.453,4.75H333.492z
			 M346.836,178.205l-2.375-7.672l-2.375,7.672H346.836z"/>
		<path fill="#231376" d="M389.56,175.564c0,2.167-0.474,4.107-1.422,5.82c-0.948,1.714-2.146,3.029-3.594,3.945
			c-1.208,0.781-2.523,1.284-3.945,1.508c-1.422,0.225-2.935,0.336-4.539,0.336h-7.281v-23.266h7.219
			c1.636,0,3.167,0.104,4.594,0.313c1.427,0.209,2.766,0.714,4.016,1.516c1.531,0.979,2.739,2.3,3.625,3.961
			C389.117,171.359,389.56,173.314,389.56,175.564z M383.56,175.518c0-1.531-0.263-2.841-0.789-3.93
			c-0.526-1.088-1.336-1.939-2.43-2.555c-0.792-0.438-1.622-0.677-2.492-0.719c-0.87-0.041-1.909-0.063-3.117-0.063h-0.109v14.563
			h0.109c1.313,0,2.419-0.023,3.32-0.07s1.758-0.325,2.57-0.836c0.958-0.604,1.688-1.438,2.188-2.5S383.56,177.049,383.56,175.518z"
			/>
		<path fill="#231376" d="M413.299,187.658c-3.125,0-5.529-0.755-7.211-2.266c-1.683-1.51-2.523-3.719-2.523-6.625v-14.859h5.844
			v14.516c0,1.615,0.305,2.818,0.914,3.609c0.609,0.792,1.602,1.188,2.977,1.188c1.344,0,2.33-0.38,2.961-1.141
			c0.63-0.76,0.945-1.979,0.945-3.656v-14.516h5.844v14.844c0,2.865-0.82,5.065-2.461,6.602
			C418.947,186.891,416.518,187.658,413.299,187.658z"/>
		<path fill="#231376" d="M458.351,187.174h-5.625l-8.969-16.219v16.219h-5.344v-23.266h7.172l7.422,13.328v-13.328h5.344V187.174z"
			/>
	</g>
</g>
<g>
	<g>
		<path fill="#DA251C" d="M23.477,222.112h-7.125l-6.484-8.531H7.773v8.531H1.961v-23.266h9.359c1.292,0,2.417,0.081,3.375,0.242
			s1.844,0.497,2.656,1.008c0.833,0.531,1.495,1.206,1.984,2.023s0.734,1.856,0.734,3.117c0,1.781-0.401,3.227-1.203,4.336
			s-1.875,1.992-3.219,2.648L23.477,222.112z M14.07,205.972c0-0.583-0.112-1.086-0.336-1.508s-0.596-0.747-1.117-0.977
			c-0.365-0.156-0.771-0.255-1.219-0.297s-1.005-0.063-1.672-0.063H7.773v6.266h1.672c0.813,0,1.502-0.05,2.07-0.148
			s1.049-0.31,1.445-0.633c0.375-0.292,0.654-0.641,0.836-1.047S14.07,206.628,14.07,205.972z"/>
		<path fill="#DA251C" d="M33.867,222.581c-3.313,0-5.852-0.792-7.617-2.375s-2.648-3.839-2.648-6.766
			c0-2.864,0.823-5.151,2.469-6.859s3.948-2.563,6.906-2.563c2.688,0,4.708,0.724,6.063,2.172s2.031,3.521,2.031,6.219v1.969H29.086
			c0.052,0.813,0.224,1.492,0.516,2.039s0.677,0.981,1.156,1.305c0.469,0.323,1.016,0.555,1.641,0.695s1.307,0.211,2.047,0.211
			c0.635,0,1.26-0.07,1.875-0.211s1.177-0.325,1.688-0.555c0.448-0.198,0.862-0.411,1.242-0.641s0.69-0.433,0.93-0.609h0.578v4.516
			c-0.448,0.177-0.857,0.341-1.227,0.492s-0.877,0.305-1.523,0.461c-0.594,0.156-1.206,0.278-1.836,0.367
			S34.773,222.581,33.867,222.581z M35.68,211.081c-0.031-1.156-0.299-2.036-0.805-2.641s-1.279-0.906-2.32-0.906
			c-1.063,0-1.893,0.317-2.492,0.953s-0.93,1.5-0.992,2.594H35.68z"/>
		<path fill="#DA251C" d="M52.492,222.581c-1.448,0-2.773-0.183-3.977-0.547s-2.248-0.927-3.133-1.688
			c-0.875-0.761-1.557-1.716-2.047-2.867s-0.734-2.508-0.734-4.07c0-1.677,0.266-3.104,0.797-4.281s1.25-2.146,2.156-2.906
			c0.875-0.729,1.904-1.269,3.086-1.617s2.414-0.523,3.695-0.523c0.969,0,1.938,0.112,2.906,0.336s1.943,0.581,2.922,1.07v4.688
			h-0.703c-0.219-0.208-0.487-0.438-0.805-0.688s-0.664-0.479-1.039-0.688c-0.396-0.219-0.844-0.403-1.344-0.555
			s-1.057-0.227-1.672-0.227c-1.396,0-2.477,0.487-3.242,1.461s-1.148,2.284-1.148,3.93c0,1.761,0.409,3.073,1.227,3.938
			s1.904,1.297,3.258,1.297c0.688,0,1.292-0.078,1.813-0.234s0.969-0.344,1.344-0.563c0.365-0.219,0.677-0.445,0.938-0.68
			s0.484-0.445,0.672-0.633h0.703v4.688c-0.313,0.136-0.674,0.292-1.086,0.469s-0.831,0.323-1.258,0.438
			c-0.531,0.146-1.029,0.258-1.492,0.336S53.252,222.581,52.492,222.581z"/>
		<path fill="#DA251C" d="M77.602,213.347c0,2.886-0.789,5.159-2.367,6.82s-3.81,2.492-6.695,2.492c-2.865,0-5.091-0.831-6.68-2.492
			s-2.383-3.935-2.383-6.82c0-2.917,0.794-5.2,2.383-6.852s3.815-2.477,6.68-2.477c2.875,0,5.104,0.831,6.688,2.492
			S77.602,210.451,77.602,213.347z M71.992,213.378c0-1.042-0.086-1.909-0.258-2.602s-0.409-1.247-0.711-1.664
			c-0.323-0.438-0.688-0.742-1.094-0.914s-0.87-0.258-1.391-0.258c-0.49,0-0.932,0.075-1.328,0.227s-0.76,0.44-1.094,0.867
			c-0.313,0.406-0.563,0.964-0.75,1.672s-0.281,1.599-0.281,2.672s0.088,1.94,0.266,2.602s0.406,1.19,0.688,1.586
			c0.292,0.406,0.656,0.703,1.094,0.891s0.922,0.281,1.453,0.281c0.438,0,0.883-0.094,1.336-0.281s0.815-0.469,1.086-0.844
			c0.323-0.448,0.568-0.987,0.734-1.617S71.992,214.492,71.992,213.378z"/>
		<path fill="#DA251C" d="M96.461,220.097c0,1.625-0.234,3.005-0.703,4.141s-1.109,2.021-1.922,2.656
			c-0.813,0.646-1.787,1.112-2.922,1.398s-2.396,0.43-3.781,0.43c-1.167,0-2.273-0.075-3.32-0.227s-1.956-0.325-2.727-0.523v-4.391
			h0.641c0.271,0.104,0.591,0.219,0.961,0.344s0.742,0.239,1.117,0.344c0.448,0.114,0.885,0.208,1.313,0.281
			s0.865,0.109,1.313,0.109c0.927,0,1.701-0.097,2.32-0.289s1.086-0.466,1.398-0.82c0.313-0.364,0.531-0.794,0.656-1.289
			s0.188-1.117,0.188-1.867v-0.328c-0.615,0.542-1.326,0.977-2.133,1.305s-1.638,0.492-2.492,0.492
			c-2.271,0-4.023-0.739-5.258-2.219s-1.852-3.729-1.852-6.75c0-1.375,0.19-2.609,0.57-3.703s0.909-2.026,1.586-2.797
			c0.646-0.739,1.427-1.31,2.344-1.711s1.87-0.602,2.859-0.602c0.896,0,1.698,0.114,2.406,0.344s1.354,0.536,1.938,0.922
			l0.203-0.781h5.297V220.097z M90.992,216.581v-7.953c-0.271-0.125-0.604-0.229-1-0.313s-0.792-0.125-1.188-0.125
			c-1.313,0-2.299,0.425-2.961,1.273s-0.992,2.034-0.992,3.555c0,0.761,0.049,1.403,0.148,1.93s0.284,0.992,0.555,1.398
			c0.26,0.396,0.602,0.695,1.023,0.898s0.961,0.305,1.617,0.305c0.49,0,0.971-0.083,1.445-0.25S90.565,216.894,90.992,216.581z"/>
		<path fill="#DA251C" d="M117.086,222.112h-5.5v-8.703c0-0.708-0.029-1.414-0.086-2.117s-0.164-1.222-0.32-1.555
			c-0.188-0.396-0.458-0.68-0.813-0.852s-0.828-0.258-1.422-0.258c-0.448,0-0.901,0.083-1.359,0.25s-0.948,0.433-1.469,0.797v12.438
			h-5.469v-17.547h5.469v1.938c0.896-0.761,1.768-1.354,2.617-1.781s1.789-0.641,2.82-0.641c1.792,0,3.162,0.565,4.109,1.695
			s1.422,2.769,1.422,4.914V222.112z"/>
		<path fill="#DA251C" d="M126.758,202.065h-5.781V197.8h5.781V202.065z M126.602,222.112h-5.469v-17.547h5.469V222.112z"/>
		<path fill="#DA251C" d="M136.133,222.597c-1.292,0-2.513-0.141-3.664-0.422s-2.102-0.609-2.852-0.984v-4.625h0.453
			c0.26,0.198,0.557,0.417,0.891,0.656s0.797,0.489,1.391,0.75c0.51,0.239,1.086,0.445,1.727,0.617s1.336,0.258,2.086,0.258
			c0.771,0,1.451-0.12,2.039-0.359s0.883-0.62,0.883-1.141c0-0.406-0.135-0.714-0.406-0.922s-0.797-0.406-1.578-0.594
			c-0.417-0.104-0.943-0.216-1.578-0.336s-1.198-0.258-1.688-0.414c-1.375-0.427-2.409-1.06-3.102-1.898s-1.039-1.94-1.039-3.305
			c0-0.781,0.18-1.519,0.539-2.211s0.888-1.31,1.586-1.852c0.698-0.531,1.56-0.953,2.586-1.266s2.185-0.469,3.477-0.469
			c1.229,0,2.359,0.122,3.391,0.367s1.901,0.539,2.609,0.883v4.438h-0.438c-0.188-0.146-0.484-0.341-0.891-0.586
			s-0.802-0.456-1.188-0.633c-0.458-0.208-0.971-0.38-1.539-0.516s-1.148-0.203-1.742-0.203c-0.792,0-1.461,0.136-2.008,0.406
			s-0.82,0.63-0.82,1.078c0,0.396,0.135,0.708,0.406,0.938s0.859,0.453,1.766,0.672c0.469,0.114,1.008,0.227,1.617,0.336
			s1.195,0.258,1.758,0.445c1.26,0.406,2.216,1.003,2.867,1.789s0.977,1.831,0.977,3.133c0,0.823-0.193,1.606-0.578,2.352
			s-0.932,1.372-1.641,1.883c-0.75,0.552-1.633,0.979-2.648,1.281S137.549,222.597,136.133,222.597z"/>
		<path fill="#DA251C" d="M156.242,222.581c-3.313,0-5.852-0.792-7.617-2.375s-2.648-3.839-2.648-6.766
			c0-2.864,0.823-5.151,2.469-6.859s3.948-2.563,6.906-2.563c2.688,0,4.708,0.724,6.063,2.172s2.031,3.521,2.031,6.219v1.969
			h-11.984c0.052,0.813,0.224,1.492,0.516,2.039s0.677,0.981,1.156,1.305c0.469,0.323,1.016,0.555,1.641,0.695
			s1.307,0.211,2.047,0.211c0.635,0,1.26-0.07,1.875-0.211s1.177-0.325,1.688-0.555c0.448-0.198,0.862-0.411,1.242-0.641
			s0.69-0.433,0.93-0.609h0.578v4.516c-0.448,0.177-0.857,0.341-1.227,0.492s-0.877,0.305-1.523,0.461
			c-0.594,0.156-1.206,0.278-1.836,0.367S157.148,222.581,156.242,222.581z M158.055,211.081c-0.031-1.156-0.299-2.036-0.805-2.641
			s-1.279-0.906-2.32-0.906c-1.063,0-1.893,0.317-2.492,0.953s-0.93,1.5-0.992,2.594H158.055z"/>
		<path fill="#DA251C" d="M182.211,222.112h-5.469v-1.828c-0.354,0.292-0.758,0.604-1.211,0.938s-0.852,0.583-1.195,0.75
			c-0.438,0.208-0.87,0.364-1.297,0.469s-0.938,0.156-1.531,0.156c-2,0-3.583-0.828-4.75-2.484s-1.75-3.87-1.75-6.641
			c0-1.531,0.198-2.859,0.594-3.984s0.943-2.104,1.641-2.938c0.635-0.761,1.406-1.362,2.313-1.805s1.865-0.664,2.875-0.664
			c0.917,0,1.669,0.097,2.258,0.289s1.273,0.492,2.055,0.898V197.8h5.469V222.112z M176.742,217.269v-8.609
			c-0.271-0.136-0.625-0.247-1.063-0.336s-0.813-0.133-1.125-0.133c-1.313,0-2.299,0.458-2.961,1.375s-0.992,2.198-0.992,3.844
			c0,1.729,0.263,2.979,0.789,3.75s1.377,1.156,2.555,1.156c0.479,0,0.963-0.094,1.453-0.281S176.336,217.592,176.742,217.269z"/>
		<path fill="#DA251C" d="M212.07,222.112h-5.469v-1.938c-0.948,0.792-1.818,1.394-2.609,1.805s-1.734,0.617-2.828,0.617
			c-1.74,0-3.096-0.55-4.07-1.648s-1.461-2.753-1.461-4.961v-11.422h5.5v8.703c0,0.906,0.023,1.646,0.07,2.219
			s0.159,1.058,0.336,1.453c0.167,0.364,0.424,0.641,0.773,0.828s0.836,0.281,1.461,0.281c0.385,0,0.841-0.094,1.367-0.281
			s1.013-0.442,1.461-0.766v-12.438h5.469V222.112z"/>
		<path fill="#DA251C" d="M232.695,222.112h-5.5v-8.703c0-0.708-0.029-1.414-0.086-2.117s-0.164-1.222-0.32-1.555
			c-0.188-0.396-0.458-0.68-0.813-0.852s-0.828-0.258-1.422-0.258c-0.448,0-0.901,0.083-1.359,0.25s-0.948,0.433-1.469,0.797v12.438
			h-5.469v-17.547h5.469v1.938c0.896-0.761,1.768-1.354,2.617-1.781s1.789-0.641,2.82-0.641c1.792,0,3.162,0.565,4.109,1.695
			s1.422,2.769,1.422,4.914V222.112z"/>
		<path fill="#DA251C" d="M252.695,222.112h-5.469v-1.828c-0.354,0.292-0.758,0.604-1.211,0.938s-0.852,0.583-1.195,0.75
			c-0.438,0.208-0.87,0.364-1.297,0.469s-0.938,0.156-1.531,0.156c-2,0-3.583-0.828-4.75-2.484s-1.75-3.87-1.75-6.641
			c0-1.531,0.198-2.859,0.594-3.984s0.943-2.104,1.641-2.938c0.635-0.761,1.406-1.362,2.313-1.805s1.865-0.664,2.875-0.664
			c0.917,0,1.669,0.097,2.258,0.289s1.273,0.492,2.055,0.898V197.8h5.469V222.112z M247.227,217.269v-8.609
			c-0.271-0.136-0.625-0.247-1.063-0.336s-0.813-0.133-1.125-0.133c-1.313,0-2.299,0.458-2.961,1.375s-0.992,2.198-0.992,3.844
			c0,1.729,0.263,2.979,0.789,3.75s1.377,1.156,2.555,1.156c0.479,0,0.963-0.094,1.453-0.281S246.82,217.592,247.227,217.269z"/>
		<path fill="#DA251C" d="M265.867,222.581c-3.313,0-5.852-0.792-7.617-2.375s-2.648-3.839-2.648-6.766
			c0-2.864,0.823-5.151,2.469-6.859s3.948-2.563,6.906-2.563c2.688,0,4.708,0.724,6.063,2.172s2.031,3.521,2.031,6.219v1.969
			h-11.984c0.052,0.813,0.224,1.492,0.516,2.039s0.677,0.981,1.156,1.305c0.469,0.323,1.016,0.555,1.641,0.695
			s1.307,0.211,2.047,0.211c0.635,0,1.26-0.07,1.875-0.211s1.177-0.325,1.688-0.555c0.448-0.198,0.862-0.411,1.242-0.641
			s0.69-0.433,0.93-0.609h0.578v4.516c-0.448,0.177-0.857,0.341-1.227,0.492s-0.877,0.305-1.523,0.461
			c-0.594,0.156-1.206,0.278-1.836,0.367S266.773,222.581,265.867,222.581z M267.68,211.081c-0.031-1.156-0.299-2.036-0.805-2.641
			s-1.279-0.906-2.32-0.906c-1.063,0-1.893,0.317-2.492,0.953s-0.93,1.5-0.992,2.594H267.68z"/>
		<path fill="#DA251C" d="M287.664,209.737h-0.453c-0.208-0.073-0.51-0.128-0.906-0.164s-0.833-0.055-1.313-0.055
			c-0.573,0-1.174,0.083-1.805,0.25s-1.242,0.364-1.836,0.594v11.75h-5.469v-17.547h5.469v2.516c0.25-0.229,0.596-0.519,1.039-0.867
			s0.846-0.628,1.211-0.836c0.396-0.239,0.857-0.445,1.383-0.617s1.023-0.258,1.492-0.258c0.177,0,0.375,0.005,0.594,0.016
			s0.417,0.026,0.594,0.047V209.737z"/>
		<path fill="#DA251C" d="M306.633,222.534c-1.781,0-3.346-0.172-4.695-0.516s-2.602-0.771-3.758-1.281v-5.531h0.531
			c1.167,0.989,2.453,1.75,3.859,2.281s2.771,0.797,4.094,0.797c0.333,0,0.773-0.036,1.32-0.109s0.987-0.188,1.32-0.344
			c0.406-0.177,0.75-0.425,1.031-0.742s0.422-0.737,0.422-1.258c0-0.583-0.229-1.058-0.688-1.422s-1.005-0.63-1.641-0.797
			c-0.792-0.208-1.638-0.406-2.539-0.594s-1.742-0.417-2.523-0.688c-1.802-0.636-3.094-1.489-3.875-2.563s-1.172-2.417-1.172-4.031
			c0-2.177,0.922-3.94,2.766-5.289s4.146-2.023,6.906-2.023c1.385,0,2.763,0.141,4.133,0.422s2.596,0.661,3.68,1.141v5.313h-0.516
			c-0.865-0.739-1.919-1.364-3.164-1.875s-2.523-0.766-3.836-0.766c-0.51,0-0.969,0.036-1.375,0.109s-0.833,0.214-1.281,0.422
			c-0.365,0.167-0.68,0.414-0.945,0.742s-0.398,0.695-0.398,1.102c0,0.594,0.211,1.065,0.633,1.414s1.237,0.664,2.445,0.945
			c0.781,0.177,1.534,0.349,2.258,0.516s1.498,0.396,2.32,0.688c1.615,0.583,2.815,1.367,3.602,2.352s1.18,2.284,1.18,3.898
			c0,2.313-0.909,4.172-2.727,5.578S309.727,222.534,306.633,222.534z"/>
		<path fill="#DA251C" d="M328.383,222.581c-3.313,0-5.852-0.792-7.617-2.375s-2.648-3.839-2.648-6.766
			c0-2.864,0.823-5.151,2.469-6.859s3.948-2.563,6.906-2.563c2.688,0,4.708,0.724,6.063,2.172s2.031,3.521,2.031,6.219v1.969
			h-11.984c0.052,0.813,0.224,1.492,0.516,2.039s0.677,0.981,1.156,1.305c0.469,0.323,1.016,0.555,1.641,0.695
			s1.307,0.211,2.047,0.211c0.635,0,1.26-0.07,1.875-0.211s1.177-0.325,1.688-0.555c0.448-0.198,0.862-0.411,1.242-0.641
			s0.69-0.433,0.93-0.609h0.578v4.516c-0.448,0.177-0.857,0.341-1.227,0.492s-0.877,0.305-1.523,0.461
			c-0.594,0.156-1.206,0.278-1.836,0.367S329.289,222.581,328.383,222.581z M330.195,211.081c-0.031-1.156-0.299-2.036-0.805-2.641
			s-1.279-0.906-2.32-0.906c-1.063,0-1.893,0.317-2.492,0.953s-0.93,1.5-0.992,2.594H330.195z"/>
		<path fill="#DA251C" d="M347.008,222.581c-1.447,0-2.773-0.183-3.977-0.547s-2.248-0.927-3.133-1.688
			c-0.875-0.761-1.557-1.716-2.047-2.867s-0.734-2.508-0.734-4.07c0-1.677,0.266-3.104,0.797-4.281s1.25-2.146,2.156-2.906
			c0.875-0.729,1.904-1.269,3.086-1.617s2.414-0.523,3.695-0.523c0.969,0,1.938,0.112,2.906,0.336s1.943,0.581,2.922,1.07v4.688
			h-0.703c-0.219-0.208-0.486-0.438-0.805-0.688s-0.664-0.479-1.039-0.688c-0.396-0.219-0.844-0.403-1.344-0.555
			s-1.057-0.227-1.672-0.227c-1.396,0-2.477,0.487-3.242,1.461s-1.148,2.284-1.148,3.93c0,1.761,0.408,3.073,1.227,3.938
			s1.904,1.297,3.258,1.297c0.688,0,1.291-0.078,1.813-0.234s0.969-0.344,1.344-0.563c0.365-0.219,0.678-0.445,0.938-0.68
			s0.484-0.445,0.672-0.633h0.703v4.688c-0.313,0.136-0.674,0.292-1.086,0.469s-0.83,0.323-1.258,0.438
			c-0.531,0.146-1.029,0.258-1.492,0.336S347.768,222.581,347.008,222.581z"/>
		<path fill="#DA251C" d="M361.992,222.456c-2.229,0-3.852-0.458-4.867-1.375s-1.523-2.417-1.523-4.5v-8.203h-2.094v-3.813h2.094
			v-5.016h5.469v5.016h5.266v3.813h-5.266v6.219c0,0.614,0.006,1.151,0.016,1.609s0.094,0.87,0.25,1.234
			c0.146,0.364,0.404,0.653,0.773,0.867s0.908,0.32,1.617,0.32c0.291,0,0.674-0.063,1.148-0.188s0.805-0.239,0.992-0.344h0.469
			v3.859c-0.594,0.156-1.225,0.278-1.891,0.367S362.961,222.456,361.992,222.456z"/>
		<path fill="#DA251C" d="M374.195,202.065h-5.781V197.8h5.781V202.065z M374.039,222.112h-5.469v-17.547h5.469V222.112z"/>
		<path fill="#DA251C" d="M395.07,213.347c0,2.886-0.789,5.159-2.367,6.82s-3.811,2.492-6.695,2.492
			c-2.865,0-5.092-0.831-6.68-2.492s-2.383-3.935-2.383-6.82c0-2.917,0.795-5.2,2.383-6.852s3.814-2.477,6.68-2.477
			c2.875,0,5.104,0.831,6.688,2.492S395.07,210.451,395.07,213.347z M389.461,213.378c0-1.042-0.086-1.909-0.258-2.602
			s-0.408-1.247-0.711-1.664c-0.322-0.438-0.688-0.742-1.094-0.914s-0.869-0.258-1.391-0.258c-0.49,0-0.932,0.075-1.328,0.227
			s-0.76,0.44-1.094,0.867c-0.313,0.406-0.563,0.964-0.75,1.672s-0.281,1.599-0.281,2.672s0.088,1.94,0.266,2.602
			s0.406,1.19,0.688,1.586c0.291,0.406,0.656,0.703,1.094,0.891s0.922,0.281,1.453,0.281c0.438,0,0.883-0.094,1.336-0.281
			s0.814-0.469,1.086-0.844c0.322-0.448,0.568-0.987,0.734-1.617S389.461,214.492,389.461,213.378z"/>
		<path fill="#DA251C" d="M414.414,222.112h-5.5v-8.703c0-0.708-0.029-1.414-0.086-2.117s-0.164-1.222-0.32-1.555
			c-0.188-0.396-0.459-0.68-0.813-0.852s-0.828-0.258-1.422-0.258c-0.447,0-0.9,0.083-1.359,0.25s-0.947,0.433-1.469,0.797v12.438
			h-5.469v-17.547h5.469v1.938c0.896-0.761,1.768-1.354,2.617-1.781s1.789-0.641,2.82-0.641c1.791,0,3.162,0.565,4.109,1.695
			s1.422,2.769,1.422,4.914V222.112z"/>
		<path fill="#DA251C" d="M445.195,222.112h-17.094v-3.797c1.447-1.146,2.748-2.229,3.898-3.25s2.164-1.989,3.039-2.906
			c1.135-1.198,1.959-2.25,2.469-3.156s0.766-1.839,0.766-2.797c0-1.083-0.322-1.914-0.969-2.492s-1.547-0.867-2.703-0.867
			c-0.594,0-1.154,0.073-1.68,0.219s-1.061,0.333-1.602,0.563c-0.531,0.239-0.984,0.484-1.359,0.734s-0.656,0.438-0.844,0.563
			h-0.453v-5.078c0.656-0.313,1.682-0.633,3.078-0.961s2.74-0.492,4.031-0.492c2.76,0,4.852,0.614,6.273,1.844
			s2.133,2.958,2.133,5.188c0,1.375-0.322,2.722-0.969,4.039s-1.719,2.731-3.219,4.242c-0.938,0.927-1.85,1.753-2.734,2.477
			s-1.525,1.237-1.922,1.539h9.859V222.112z"/>
		<path fill="#DA251C" d="M459.398,228.55h-5.734c-0.885-1.052-1.688-2.136-2.406-3.25s-1.338-2.313-1.859-3.594
			c-0.49-1.198-0.873-2.526-1.148-3.984s-0.414-2.974-0.414-4.547c0-1.719,0.143-3.276,0.43-4.672s0.658-2.672,1.117-3.828
			c0.5-1.261,1.111-2.45,1.836-3.57s1.539-2.222,2.445-3.305h5.734v0.453c-0.844,0.761-1.648,1.622-2.414,2.586
			s-1.477,2.091-2.133,3.383c-0.625,1.239-1.133,2.614-1.523,4.125s-0.586,3.12-0.586,4.828c0,1.781,0.189,3.396,0.57,4.844
			s0.893,2.817,1.539,4.109c0.625,1.229,1.33,2.347,2.117,3.352s1.596,1.878,2.43,2.617V228.55z"/>
		<path fill="#DA251C" d="M473.961,201.925h-0.422c-0.209-0.063-0.533-0.144-0.977-0.242s-0.861-0.148-1.258-0.148
			c-1.104,0-1.857,0.203-2.258,0.609s-0.602,1.167-0.602,2.281v0.141h4.344v3.813h-4.156v13.734h-5.469v-13.734h-2.188v-3.813h2.188
			v-0.484c0-2.146,0.563-3.755,1.688-4.828s2.828-1.609,5.109-1.609c0.791,0,1.531,0.028,2.219,0.086s1.281,0.133,1.781,0.227
			V201.925z"/>
		<path fill="#DA251C" d="M485.68,213.175c0,1.573-0.139,3.086-0.414,4.539s-0.658,2.784-1.148,3.992
			c-0.521,1.281-1.141,2.479-1.859,3.594s-1.521,2.198-2.406,3.25h-5.734v-0.453c0.834-0.739,1.646-1.609,2.438-2.609
			s1.494-2.12,2.109-3.359c0.646-1.292,1.158-2.661,1.539-4.109s0.57-3.063,0.57-4.844c0-1.708-0.195-3.317-0.586-4.828
			s-0.898-2.886-1.523-4.125c-0.656-1.292-1.367-2.419-2.133-3.383s-1.57-1.825-2.414-2.586V197.8h5.734
			c0.906,1.083,1.721,2.185,2.445,3.305s1.336,2.31,1.836,3.57c0.459,1.156,0.83,2.433,1.117,3.828S485.68,211.456,485.68,213.175z"
			/>
		<path fill="#DA251C" d="M515.727,213.347c0,2.886-0.789,5.159-2.367,6.82s-3.811,2.492-6.695,2.492
			c-2.865,0-5.092-0.831-6.68-2.492s-2.383-3.935-2.383-6.82c0-2.917,0.795-5.2,2.383-6.852s3.814-2.477,6.68-2.477
			c2.875,0,5.104,0.831,6.688,2.492S515.727,210.451,515.727,213.347z M510.117,213.378c0-1.042-0.086-1.909-0.258-2.602
			s-0.408-1.247-0.711-1.664c-0.322-0.438-0.688-0.742-1.094-0.914s-0.869-0.258-1.391-0.258c-0.49,0-0.932,0.075-1.328,0.227
			s-0.76,0.44-1.094,0.867c-0.313,0.406-0.563,0.964-0.75,1.672s-0.281,1.599-0.281,2.672s0.088,1.94,0.266,2.602
			s0.406,1.19,0.688,1.586c0.291,0.406,0.656,0.703,1.094,0.891s0.922,0.281,1.453,0.281c0.438,0,0.883-0.094,1.336-0.281
			s0.814-0.469,1.086-0.844c0.322-0.448,0.568-0.987,0.734-1.617S510.117,214.492,510.117,213.378z"/>
		<path fill="#DA251C" d="M529.852,201.925h-0.422c-0.209-0.063-0.533-0.144-0.977-0.242s-0.861-0.148-1.258-0.148
			c-1.104,0-1.857,0.203-2.258,0.609s-0.602,1.167-0.602,2.281v0.141h4.344v3.813h-4.156v13.734h-5.469v-13.734h-2.188v-3.813h2.188
			v-0.484c0-2.146,0.563-3.755,1.688-4.828s2.828-1.609,5.109-1.609c0.791,0,1.531,0.028,2.219,0.086s1.281,0.133,1.781,0.227
			V201.925z"/>
		<path fill="#DA251C" d="M549.961,222.597c-3.125,0-5.529-0.755-7.211-2.266s-2.523-3.719-2.523-6.625v-14.859h5.844v14.516
			c0,1.614,0.305,2.817,0.914,3.609s1.602,1.188,2.977,1.188c1.344,0,2.33-0.38,2.961-1.141s0.945-1.979,0.945-3.656v-14.516h5.844
			v14.844c0,2.864-0.82,5.065-2.461,6.602S553.18,222.597,549.961,222.597z"/>
		<path fill="#DA251C" d="M583.633,220.784c-1.021,0.417-2.346,0.823-3.977,1.219s-3.236,0.594-4.82,0.594
			c-3.656,0-6.57-1.055-8.742-3.164s-3.258-5.102-3.258-8.977c0-3.646,1.086-6.567,3.258-8.766s5.143-3.297,8.914-3.297
			c1.947,0,3.531,0.185,4.75,0.555s2.479,0.872,3.781,1.508v5.453h-0.531c-0.281-0.219-0.686-0.528-1.211-0.93
			s-1.039-0.742-1.539-1.023c-0.584-0.333-1.258-0.62-2.023-0.859s-1.576-0.359-2.43-0.359c-1,0-1.912,0.156-2.734,0.469
			s-1.557,0.792-2.203,1.438c-0.615,0.625-1.102,1.417-1.461,2.375s-0.539,2.073-0.539,3.344c0,2.719,0.682,4.724,2.047,6.016
			s3.229,1.938,5.594,1.938c0.209,0,0.453-0.005,0.734-0.016s0.525-0.026,0.734-0.047v-4.563h-4.516v-4.359h10.172V220.784z"/>
		<path fill="#DA251C" d="M598.07,222.565c-3.49,0-6.26-1.055-8.313-3.164s-3.078-5.075-3.078-8.898c0-3.688,1.029-6.628,3.086-8.82
			s4.83-3.289,8.32-3.289c0.928,0,1.76,0.052,2.5,0.156s1.447,0.25,2.125,0.438c0.531,0.156,1.109,0.37,1.734,0.641
			s1.131,0.505,1.516,0.703v5.547h-0.594c-0.281-0.25-0.635-0.55-1.063-0.898s-0.912-0.69-1.453-1.023s-1.139-0.617-1.789-0.852
			s-1.33-0.352-2.039-0.352c-0.844,0-1.617,0.133-2.32,0.398s-1.373,0.727-2.008,1.383c-0.584,0.594-1.061,1.396-1.43,2.406
			s-0.555,2.203-0.555,3.578c0,1.448,0.193,2.664,0.578,3.648s0.891,1.778,1.516,2.383c0.604,0.583,1.279,1.005,2.023,1.266
			s1.486,0.391,2.227,0.391c0.771,0,1.506-0.128,2.203-0.383s1.287-0.539,1.766-0.852c0.521-0.323,0.979-0.651,1.375-0.984
			s0.74-0.63,1.031-0.891h0.531v5.469c-0.428,0.198-0.922,0.425-1.484,0.68s-1.141,0.472-1.734,0.648
			c-0.729,0.219-1.412,0.386-2.047,0.5S599.186,222.565,598.07,222.565z"/>
		<path fill="#DA251C" d="M616.273,222.112l7.859-23.266h6.375l7.859,23.266h-6.016l-1.453-4.75h-7.313l-1.453,4.75H616.273z
			 M629.617,213.144l-2.375-7.672l-2.375,7.672H629.617z"/>
		<path fill="#DA251C" d="M648.977,222.581c-1.447,0-2.773-0.183-3.977-0.547s-2.248-0.927-3.133-1.688
			c-0.875-0.761-1.557-1.716-2.047-2.867s-0.734-2.508-0.734-4.07c0-1.677,0.266-3.104,0.797-4.281s1.25-2.146,2.156-2.906
			c0.875-0.729,1.904-1.269,3.086-1.617s2.414-0.523,3.695-0.523c0.969,0,1.938,0.112,2.906,0.336s1.943,0.581,2.922,1.07v4.688
			h-0.703c-0.219-0.208-0.486-0.438-0.805-0.688s-0.664-0.479-1.039-0.688c-0.396-0.219-0.844-0.403-1.344-0.555
			s-1.057-0.227-1.672-0.227c-1.396,0-2.477,0.487-3.242,1.461s-1.148,2.284-1.148,3.93c0,1.761,0.408,3.073,1.227,3.938
			s1.904,1.297,3.258,1.297c0.688,0,1.291-0.078,1.813-0.234s0.969-0.344,1.344-0.563c0.365-0.219,0.678-0.445,0.938-0.68
			s0.484-0.445,0.672-0.633h0.703v4.688c-0.313,0.136-0.674,0.292-1.086,0.469s-0.83,0.323-1.258,0.438
			c-0.531,0.146-1.029,0.258-1.492,0.336S649.736,222.581,648.977,222.581z"/>
		<path fill="#DA251C" d="M663.961,222.456c-2.229,0-3.852-0.458-4.867-1.375s-1.523-2.417-1.523-4.5v-8.203h-2.094v-3.813h2.094
			v-5.016h5.469v5.016h5.266v3.813h-5.266v6.219c0,0.614,0.006,1.151,0.016,1.609s0.094,0.87,0.25,1.234
			c0.146,0.364,0.404,0.653,0.773,0.867s0.908,0.32,1.617,0.32c0.291,0,0.674-0.063,1.148-0.188s0.805-0.239,0.992-0.344h0.469
			v3.859c-0.594,0.156-1.225,0.278-1.891,0.367S664.93,222.456,663.961,222.456z"/>
	</g>
</g>
</svg>
